<?xml version="1.0" encoding="UTF-8"?>
<svg xmlns="http://www.w3.org/2000/svg" width="488" height="184" viewBox="0 0 488 184" fill="none">
  <g clip-path="url(#clip0)">
    <path d="M49.9453 -0.00248718V183.999H488.004V-0.00248718H49.9453Z" fill="#FFFF00"></path>
    <path d="M440.291 98.741C441.203 97.1718 441.204 95.2675 441.536 94.5191C442.025 93.6935 443.854 93.855 443.854 93.2772C443.854 93.0356 442.529 92.7036 442.025 92.3721C441.042 91.7943 441.375 88.8137 440.876 88.8137C440.121 88.8137 439.375 90.8791 438.624 89.9741C437.303 88.3162 431.82 85.1694 429.336 84.2592C428.419 83.9277 430.001 81.1983 429.588 80.942C429.17 80.6959 428.091 82.606 426.514 82.2739C425.269 82.0226 425.848 79.7857 425.183 79.7857C424.851 79.7857 423.601 82.9325 422.689 82.6812C421.691 82.435 420.376 82.0785 420.376 82.0785V73.8295C420.376 72.4218 419.428 71.3315 418.209 71.3413H409.244C406.754 71.3413 406.921 69.522 406.921 69.1047C406.921 58.0971 422.941 56.277 422.941 41.877C422.941 35.5833 418.96 31.3611 414.313 27.6315C414.056 27.4703 414.313 28.5466 414.313 28.9582C414.313 35.6634 389.328 39.1417 389.328 54.6237C389.328 68.1095 402.779 68.6873 402.779 70.7638C402.779 71.1753 401.952 71.3414 401.866 71.3414H391.576C390.497 71.3414 389.56 72.0051 389.575 73.8095L389.586 82.1034C388.582 82.4351 387.262 80.9421 386.591 80.9421C386.259 80.9421 386.431 83.5105 385.846 83.8477C385.347 84.088 375.974 87.4012 375.132 87.4862C373.817 87.7327 374.149 85.4156 373.403 85.4156C372.729 85.4156 372.729 87.7326 371.07 87.7326C370.078 87.7326 369.251 86.8175 368.506 86.8175C368.007 86.8175 369.579 88.7278 369.579 89.3014C369.579 90.8791 366.515 91.4521 366.515 92.533C366.515 93.1115 369.413 92.2869 369.831 92.2869C371.322 92.2869 371.161 94.0312 371.731 94.0312C372.316 94.0312 372.729 92.0306 373.233 91.7084C374.22 91.1305 375.389 92.1208 375.888 92.1208C376.715 92.1208 375.223 90.1303 375.974 89.7989C375.974 89.7989 386.087 85.5009 386.758 85.828C387.337 86.1643 387.262 87.1547 387.922 87.4862C388.582 87.8136 389.586 85.1694 389.586 86.8175V107.104C388.416 107.838 385.927 108.265 384.596 108.265C383.941 108.265 384.263 106.109 383.85 106.109C383.186 106.109 382.52 107.93 381.527 107.93C380.615 107.93 379.289 105.698 378.382 105.698C377.803 105.698 379.451 108.507 378.459 109.005C374.633 110.915 368.581 112.734 368.581 118.766C368.581 120.017 369.251 121.515 368.99 121.912C368.753 122.5 367.427 123.657 367.503 124.154C367.503 124.652 369.993 124.481 370.497 125.234C370.738 125.637 370.909 127.461 371.413 127.461C371.817 127.461 372.894 126.06 373.817 126.552C376.715 128.296 381.774 130.191 384.107 131.447C384.677 131.78 384.349 133.594 384.677 133.76C385.347 134.091 386.667 132.021 388.754 133.177C389.173 133.347 389.586 134.011 389.586 134.756L389.575 141.526C389.575 142.767 390.15 143.094 390.82 143.26L415.563 148.171C415.563 148.171 417.761 148.663 418.506 148.663C419.368 148.698 420.437 148.658 420.376 146.582L420.366 131.196C420.366 131.041 420.563 130.663 420.895 130.663C422.346 130.658 421.615 134.835 421.943 134.835C422.603 134.835 423.022 132.021 423.858 132.021C425.017 132.021 425.773 133.096 426.257 132.85C426.676 132.603 426.02 131.272 426.02 130.442C426.02 129.703 428.167 129.372 430.828 128.376C433.151 127.557 435.06 126.642 435.812 126.642C436.387 126.642 436.794 128.21 437.303 128.21C437.716 128.21 437.797 126.15 438.714 126.15C439.455 126.15 441.114 127.301 441.536 126.969C441.865 126.728 440.705 125.15 441.613 124.481C442.282 124.069 443.855 123.084 443.855 122.666C443.855 122.42 440.786 122.33 440.619 122.33C440.039 122.169 439.375 120.35 438.951 120.35C438.472 120.35 438.472 122.169 437.716 122.747C437.046 123.24 435.394 121.008 434.653 121.008C434.229 121.008 435.141 122.666 435.141 123.998C435.141 125.316 427.098 127.884 426.02 127.884C424.357 127.884 424.271 125.813 423.939 125.813C423.44 125.813 423.455 128.341 421.62 128.341C420.704 128.341 420.376 127.657 420.376 127.166V107.29C420.376 106.723 420.543 105.948 421.62 105.903C422.986 105.843 423.022 108.924 423.521 108.924C424.433 108.924 424.937 105.863 426.676 105.863C428.006 105.863 429.084 107.688 429.916 107.688C430.495 107.688 428.923 105.783 428.923 104.867C428.923 103.958 437.137 104.29 440.291 98.741ZM388.17 129.205C386.844 129.205 386.012 126.552 385.68 126.642C385.267 126.728 385.771 128.874 385.267 129.205C384.853 129.613 376.054 125.562 375.389 124.908C374.805 124.325 375.641 123.501 375.389 122.918C375.224 122.42 373.888 122.581 373.485 122.33C373.147 122.002 373.888 120.505 373.403 120.183C372.976 119.932 372.074 121.676 371.489 120.837C371.233 120.505 371.161 119.932 371.161 119.188C371.161 114.137 376.549 112.07 380.208 110.829C381.694 110.327 381.19 112.231 381.694 112.317C382.273 112.483 382.359 111.408 383.024 111.408C383.528 111.408 385.438 112.317 385.846 111.985C386.179 111.739 384.853 110.497 385.267 110C385.771 109.587 389.621 108.863 389.586 109.849L389.596 127.537C389.596 129.391 388.17 129.205 388.17 129.205ZM397.548 57.7696C397.548 46.3456 414.48 39.8054 415.639 34.0104C416.884 35.1707 417.05 37.071 417.05 38.73C417.05 45.6817 404.935 57.3522 404.935 65.7975C404.935 66.7123 405.017 66.9529 405.017 67.5363C405.017 68.3606 404.683 68.5319 404.522 68.5319C402.522 68.5319 397.548 64.6359 397.548 57.7696ZM414.646 140.872C414.646 142.616 414.057 143.023 412.57 142.697L396.721 139.55C395.804 139.389 395.305 138.806 395.305 137.816V109.176C395.305 108.432 397.88 108.345 398.294 108.678C399.044 109.341 398.793 111.739 399.287 111.739C399.956 111.739 401.695 108.838 402.446 108.838C404.023 108.838 405.097 109.748 405.429 109.587C405.767 109.417 405.767 108.095 406.175 107.763C406.754 107.36 408.498 107.36 409.41 107.261C410.912 107.18 413.648 106.934 413.648 106.934C414.727 106.934 414.646 107.687 414.646 109.261V140.872H414.646ZM405.595 105.19C405.097 104.375 405.343 102.963 404.85 102.963C404.603 102.963 403.278 104.953 402.522 104.953C401.781 104.953 400.536 103.541 400.037 103.541C399.704 103.541 400.37 105.531 399.704 106.351C399.287 106.934 395.305 107.36 395.305 106.858V78.7102C395.305 77.3878 396.308 76.8909 397.21 76.8909L412.066 76.8851C413.885 76.8851 414.636 77.4587 414.636 79.3629L414.651 104.626C414.651 105.451 405.923 105.783 405.595 105.19ZM428.333 102.304C427.754 102.053 427.678 100.239 427.345 100.239C426.841 100.239 426.584 101.887 425.607 102.133C424.599 102.304 423.112 101.062 422.69 101.384C422.271 101.726 423.626 104.073 421.389 104.073C420.719 104.073 420.376 103.315 420.376 102.737V84.6967C420.376 84.6967 420.452 84.6716 421.455 84.918C422.115 85.0893 422.78 85.4155 422.78 86.3306C422.78 86.8174 422.603 87.8135 422.942 87.9838C423.289 88.1548 423.521 87.8135 423.693 87.7325C426.756 85.5008 427.507 89.4665 428.167 89.4665C428.752 89.4665 428.671 86.7422 429.497 86.7422C430.168 86.486 436.552 89.5527 436.552 91.5432C436.552 91.9547 435.716 92.0306 435.645 92.4522C435.564 93.0355 437.137 93.2771 436.885 94.3576C436.794 95.0267 435.308 95.8503 435.716 96.2583C436.144 96.674 438.135 95.8504 438.301 95.8504C438.714 95.8504 438.79 96.5041 438.79 96.7555C438.79 100.404 430.248 103.139 428.333 102.304Z" fill="#040606"></path>
    <path d="M248.157 116.236C248.157 111.944 250.683 108.453 256.163 108.453C261.643 108.453 264.179 111.944 264.179 116.236V131.879C264.179 136.17 261.643 139.662 256.163 139.662C250.683 139.662 248.157 136.17 248.157 131.879V116.236ZM253.385 131.753C253.385 134.025 254.057 135.118 256.163 135.118C258.274 135.118 258.951 134.025 258.951 131.753V116.362C258.951 114.091 258.274 112.998 256.163 112.998C254.057 112.998 253.385 114.091 253.385 116.362V131.753Z" fill="#040606"></path>
    <path d="M229.288 119.009V116.651C229.288 114.087 228.106 112.994 226.757 112.994C224.646 112.994 223.975 114.087 223.975 116.359V131.755C223.975 134.026 224.646 135.121 226.757 135.121C228.657 135.121 229.288 134.026 229.288 132.052V128.389H234.515V131.881C234.515 136.173 231.985 139.665 226.757 139.665C221.273 139.665 218.748 136.173 218.748 131.881V116.233C218.748 111.941 221.273 108.45 226.757 108.45C231.985 108.45 234.515 112.238 234.515 116.777V119.009H229.288" fill="#040606"></path>
    <path d="M94.8418 108.886H100.09V139.37H94.8418V108.886Z" fill="#040606"></path>
    <path d="M105.191 139.371V108.887H110.059L116.454 126.323H116.54V108.887H121.278V139.371H116.707L110.014 120.327H109.933V139.371H105.191Z" fill="#040606"></path>
    <path d="M128.78 113.447H123.7V108.887H139.109V113.447H134.028V139.373H128.78V113.447Z" fill="#040606"></path>
    <path d="M141.531 139.371V108.887H155.588V113.445H146.784V121.3H153.552V125.859H146.784V134.816H156.179V139.371H141.531Z" fill="#040606"></path>
    <path d="M164.542 139.371H159.295V108.887H166.659C172.543 108.887 175.553 111.375 175.553 117.884C175.553 122.776 173.649 124.76 171.871 125.562L176.311 139.371H170.977L167.25 126.746C166.578 126.836 165.477 126.872 164.542 126.872V139.371H164.542ZM164.542 122.563H166.407C169.24 122.563 170.301 121.506 170.301 117.884C170.301 114.246 169.24 113.189 166.407 113.189H164.542V122.563Z" fill="#040606"></path>
    <path d="M179.62 139.371V108.887H184.489L190.878 126.323H190.964V108.887H195.706V139.371H191.135L184.448 120.327H184.362V139.371H179.62Z" fill="#040606"></path>
    <path d="M204.11 139.371H199.029L204.661 108.887H211.181L216.813 139.371H211.737L210.802 132.615H205.045L204.11 139.371ZM205.807 128.056H210.04L207.964 114.962H207.883L205.807 128.056Z" fill="#040606"></path>
    <path d="M238.266 108.886H243.513V139.37H238.266V108.886Z" fill="#040606"></path>
    <path d="M268.819 139.371V108.887H273.688L280.078 126.323H280.158V108.887H284.906V139.371H280.33L273.647 120.327H273.562V139.371H268.819Z" fill="#040606"></path>
    <path d="M293.019 139.371H287.937L293.569 108.887H300.089L305.721 139.371H300.635L299.705 132.615H293.952L293.019 139.371ZM294.71 128.056H298.948L296.872 114.962H296.786L294.71 128.056Z" fill="#040606"></path>
    <path d="M308.872 139.371V108.887H314.114V134.816H322.372V139.371H308.872Z" fill="#040606"></path>
    <path d="M205.737 44.1517H214.541V95.2734H205.737V44.1517Z" fill="#040606"></path>
    <path d="M239.137 56.7556C238.779 52.3649 236.438 51.0932 234.449 51.0932C231.614 51.0932 230.052 52.9299 230.052 56.1195C230.052 64.8242 247.941 69.0063 247.941 82.8813C247.941 91.3064 242.259 95.9814 234.026 95.9814C225.865 95.9814 221.177 89.4646 220.824 81.8182L229.2 80.6169C229.558 85.7866 231.614 88.3357 234.449 88.3357C237.505 88.3357 239.566 86.7076 239.566 83.6592C239.566 73.5349 221.672 70.8434 221.672 56.1905C221.672 48.0449 226.645 43.4463 235.301 43.4463C242.473 43.4463 246.732 48.6151 247.513 55.8347L239.137 56.7556Z" fill="#040606"></path>
    <path d="M258.55 51.7999H250.031V44.1529H275.872V51.7999H267.354V95.2749H258.55V51.7999Z" fill="#040606"></path>
    <path d="M280.63 44.1517H289.434V95.2734H280.63V44.1517ZM285.884 41.4598H279.988L285.598 31.264H295.178L285.884 41.4598Z" fill="#040606"></path>
    <path d="M304.681 76.2981H311.776L308.302 54.3496H308.159L304.681 76.2981ZM301.84 95.27H293.321L302.762 44.1538H313.694L323.136 95.27H314.617L313.056 83.9451H303.405L301.84 95.27Z" fill="#040606"></path>
    <path d="M101.596 95.2725H93.0671L102.519 44.1152H113.46L122.907 95.2725H114.383L112.818 83.9326H103.156L101.596 95.2725ZM104.437 76.2856H111.537L108.058 54.3163H107.921L104.437 76.2856Z" fill="#040606"></path>
    <path d="M163.041 44.115V95.2734H155.364V55.3079H155.226L147.269 95.2734H143.005L135.053 55.3079H134.909V95.2734H127.238V44.115H138.817L145.065 74.016H145.208L151.462 44.115H163.041Z" fill="#040606"></path>
    <path d="M170.43 95.2725V44.1152H178.602L189.329 73.3799H189.471V44.1152H197.424V95.2725H189.752L178.53 63.3117H178.388V95.2725H170.43Z" fill="#040606"></path>
    <path d="M49.9454 0.128418H0V183.874H49.9454V0.128418Z" fill="black" stroke="black" stroke-width="1.2819"></path>
    <path d="M36.0716 136.024H12.5015V125.213H16.0272V131.986H22.0993V126.776H25.625V131.986H32.5453V124.757H36.071V136.024H36.0716Z" fill="white"></path>
    <path d="M18.3123 114.208C17.812 114.251 17.3932 114.344 17.0555 114.485C16.7183 114.626 16.4515 114.799 16.2557 115.006C16.0598 115.212 15.9192 115.434 15.8313 115.672C15.7446 115.912 15.7007 116.14 15.7007 116.357C15.7007 117.007 15.9022 117.508 16.3046 117.855C16.7083 118.202 17.279 118.376 18.0185 118.376C18.6934 118.376 19.3137 118.175 19.8793 117.773C20.4456 117.372 21.0112 116.867 21.5769 116.259C22.1425 115.651 22.7145 114.989 23.2902 114.273C23.8671 113.556 24.5043 112.895 25.1999 112.287C25.8968 111.679 26.664 111.174 27.5015 110.772C28.3396 110.37 29.2926 110.169 30.3586 110.169C31.338 110.169 32.2031 110.327 32.9539 110.642C33.7048 110.957 34.3363 111.391 34.8474 111.944C35.359 112.498 35.7457 113.171 36.0069 113.964C36.2674 114.756 36.398 115.619 36.398 116.552C36.398 117.486 36.2241 118.321 35.8763 119.059C35.5279 119.798 35.0545 120.422 34.4556 120.932C33.8573 121.442 33.1661 121.839 32.3826 122.12C31.5991 122.402 30.7616 122.565 29.8689 122.608L29.3139 118.766C30.5105 118.679 31.4032 118.418 31.9909 117.984C32.5785 117.55 32.8723 117.007 32.8723 116.356C32.8723 115.662 32.6877 115.097 32.3167 114.662C31.9469 114.229 31.4139 114.012 30.7171 114.012C29.9336 114.012 29.238 114.212 28.6277 114.614C28.0188 115.016 27.4318 115.521 26.8649 116.128C26.2992 116.736 25.7336 117.398 25.1673 118.115C24.6016 118.831 23.9814 119.493 23.3065 120.101C22.6322 120.709 21.8701 121.213 21.0213 121.615C20.1719 122.017 19.1818 122.217 18.0505 122.217C16.1571 122.217 14.7044 121.675 13.6923 120.589C12.681 119.504 12.1743 117.963 12.1743 115.965C12.1743 115.141 12.3168 114.402 12.5993 113.751C12.8818 113.099 13.2799 112.541 13.7903 112.074C14.3019 111.607 14.9059 111.227 15.6027 110.935C16.299 110.641 17.0605 110.452 17.8879 110.365L18.3123 114.208Z" fill="white"></path>
    <path d="M36.0716 107.11H12.5015V101.314C12.5015 98.8179 13.0351 96.9781 14.1011 95.7946C15.1677 94.6118 16.9526 94.02 19.455 94.02C20.7175 94.02 21.7892 94.1666 22.6706 94.4602C23.5514 94.7527 24.2702 95.1979 24.8252 95.7946C25.3802 96.392 25.7832 97.1522 26.0331 98.0746C26.2836 98.9976 26.4091 100.077 26.4091 101.315V103.073H36.0723V107.11H36.0716ZM23.0787 103.073V101.51C23.0787 100.858 23.0247 100.31 22.9154 99.8649C22.8068 99.4209 22.611 99.0627 22.3278 98.791C22.0447 98.5192 21.6692 98.3301 21.2015 98.2211C20.7338 98.1122 20.1512 98.0577 19.455 98.0577C18.7588 98.0577 18.1768 98.1122 17.7085 98.2211C17.2407 98.3301 16.871 98.5198 16.5985 98.791C16.326 99.0621 16.1308 99.4209 16.0102 99.8649C15.891 100.31 15.8307 100.858 15.8307 101.51V103.073H23.0787Z" fill="white"></path>
    <path d="M36.0716 88.4844V92.3918L12.5015 88.0611V83.0466L36.0716 78.7158V82.6232L30.8483 83.3396V87.768L36.0716 88.4844ZM27.3226 87.1819V83.9257L17.2024 85.5213V85.5864L27.3226 87.1819Z" fill="white"></path>
    <path d="M6.98438 64.8772C7.44204 64.9643 7.9041 65.0889 8.37182 65.2517C8.84016 65.4145 9.25325 65.6261 9.61235 65.8866C9.97145 66.1471 10.2653 66.4677 10.4938 66.8472C10.7223 67.2273 10.8366 67.6888 10.8366 68.2311C10.8366 68.6218 10.7713 68.9913 10.6407 69.3382C10.5101 69.6857 10.3582 70.022 10.183 70.3476C10.0098 70.6732 9.86222 70.9939 9.74231 71.3082C9.62365 71.6232 9.56338 71.9544 9.56338 72.3013C9.56338 72.801 9.68267 73.1479 9.92186 73.3433C10.1617 73.5387 10.5208 73.6477 10.9998 73.6689V75.4924C10.5421 75.406 10.0801 75.2864 9.61172 75.1342C9.14464 74.9827 8.73092 74.776 8.37119 74.5155C8.01146 74.2551 7.71827 73.9294 7.48976 73.5387C7.26186 73.148 7.14698 72.6814 7.14698 72.1385C7.14698 71.7478 7.21227 71.379 7.34348 71.0314C7.47406 70.6845 7.61594 70.3476 7.76787 70.022C7.92043 69.6964 8.06733 69.3764 8.20859 69.0614C8.35047 68.7471 8.42079 68.4158 8.42079 68.0683C8.42079 67.5692 8.3015 67.2217 8.06168 67.0263C7.82249 66.8309 7.46339 66.7226 6.98438 66.7007V64.8772ZM36.0717 76.3716H12.5015V72.627L25.9842 67.7101V67.645H12.5015V63.998H36.0717V67.5147L21.3485 72.6595V72.7246H36.0717V76.3716Z" fill="white"></path>
    <path d="M36.0716 57.7466V61.654L12.5015 57.3233V52.3088L36.0716 47.978V51.8855L30.8483 52.6018V57.0302L36.0716 57.7466ZM27.3226 56.4441V53.1879L17.2024 54.7835V54.8486L27.3226 56.4441Z" fill="white"></path>
  </g>
  <defs>
    <clipPath id="clip0">
      <rect width="488" height="184" fill="white"></rect>
    </clipPath>
  </defs>
</svg>
