<?xml version="1.0" encoding="UTF-8" standalone="no"?>
<!-- Created with Inkscape (http://www.inkscape.org/) -->
<svg
   xmlns:svg="http://www.w3.org/2000/svg"
   xmlns="http://www.w3.org/2000/svg"
   version="1.0"
   width="956.69287"
   height="375.59055"
   id="svg2">
  <defs
     id="defs4" />
  <g
     transform="translate(-265.188,278.99134)"
     id="layer1">
    <g
       transform="matrix(5.4063276,0,0,5.4063276,-1133.072,-78.601157)"
       id="g6271">
      <path
         d="M 380.41048,-30.524036 L 389.13673,-30.524036 L 389.13673,-22.009036 L 380.41048,-22.009036 L 380.41048,-30.524036 z"
         id="path5994"
         style="fill:#000000;fill-opacity:1;fill-rule:nonzero;stroke:none" />
      <path
         d="M 356.33173,-7.607786 C 354.57298,-6.422786 352.68673,-4.441536 352.60423,-0.845286 C 352.56298,1.012214 352.92173,2.713464 353.39798,3.769714 C 353.75798,4.564714 354.26298,5.573464 354.98548,6.220964 C 356.28423,7.385964 357.58048,8.312214 360.10548,8.817214 C 360.74298,8.944714 362.93173,9.092214 363.56673,9.105964 C 364.95673,9.133464 366.56923,8.788464 367.76923,8.487214 C 368.27173,8.362214 369.70923,7.957214 371.16423,6.518464 L 371.14798,8.808464 L 379.93048,8.808464 C 379.93048,8.808464 379.72423,8.327214 379.58673,8.030964 C 379.31798,7.448464 379.44298,7.594714 379.21923,7.140964 C 379.17423,7.049714 379.10048,6.849714 379.03423,6.468464 C 378.98173,6.174714 378.98548,6.234714 378.96048,5.725964 C 378.91048,4.694714 378.97423,3.832214 378.97673,3.693464 L 378.93298,-12.654036 C 378.93298,-14.607786 378.66923,-16.019036 377.90798,-17.320286 C 377.16423,-18.591536 375.81298,-19.542786 374.92173,-20.036536 C 372.52173,-21.364036 369.35423,-21.684036 366.21798,-21.684036 C 364.15923,-21.684036 361.51423,-21.555286 359.37423,-20.572786 C 357.64673,-19.780286 356.36923,-18.697786 355.57923,-17.660286 C 354.71548,-16.526536 354.35048,-15.604036 354.12048,-14.616536 C 353.98798,-14.050286 353.78798,-13.230286 353.76048,-12.597786 C 353.73048,-11.949036 353.67423,-11.601536 353.68798,-10.795286 L 361.54548,-10.795286 C 361.58048,-11.541536 361.64923,-12.476536 361.76423,-12.959036 C 361.92923,-13.666536 362.38298,-14.152786 362.53173,-14.352786 C 363.16048,-15.190286 364.12423,-15.505286 366.55298,-15.560286 C 368.39798,-15.601536 369.70298,-15.020286 370.34298,-14.329036 C 371.06798,-13.547786 370.99673,-12.937786 370.99673,-11.747786 C 370.99673,-10.770286 370.81298,-10.379036 369.84923,-9.792786 C 369.29173,-9.454036 367.50298,-9.395286 366.16173,-9.352786 L 362.50548,-9.304036 C 360.70423,-9.304036 358.38548,-8.989036 356.33173,-7.607786 M 370.74423,0.117214 C 370.51673,0.660964 370.51423,0.829714 370.34298,1.029714 C 370.10423,1.308464 369.72173,1.662214 369.18923,1.967214 C 367.95548,2.677214 366.40423,2.832214 364.71798,2.832214 C 363.54673,2.832214 362.19548,2.688464 361.25923,1.967214 C 360.58423,1.448464 360.29548,0.468464 360.38048,-0.841536 C 360.46048,-2.074036 361.08048,-2.787786 361.76423,-3.080286 C 362.26798,-3.296536 363.12673,-3.399036 364.71798,-3.440286 L 367.89298,-3.440286 C 368.85673,-3.440286 368.96673,-3.437786 369.67798,-3.605286 C 370.32173,-3.756536 370.64798,-3.896536 371.12048,-4.197786 L 371.12048,-1.852786 C 371.03798,-1.224036 371.02673,-0.560286 370.74423,0.117214"
         id="path5996"
         style="fill:#000000;fill-opacity:1;fill-rule:nonzero;stroke:none" />
      <path
         d="M 380.39423,-20.649036 L 389.13548,-20.649036 L 389.13548,8.809714 L 380.39423,8.809714 L 380.39423,-20.649036 z"
         id="path5998"
         style="fill:#000000;fill-opacity:1;fill-rule:nonzero;stroke:none" />
      <path
         d="M 265.44548,17.174714 C 265.57298,15.034714 267.48923,14.389714 269.35548,14.389714 C 271.01298,14.389714 273.00798,14.760964 273.00798,16.755964 L 273.00798,21.085964 C 273.00798,21.842214 273.08923,22.598464 273.29798,22.935964 L 270.98048,22.935964 C 270.90048,22.678464 270.83548,22.404714 270.81923,22.132214 C 270.09548,22.887214 269.03298,23.162214 268.01923,23.162214 C 266.44298,23.162214 265.18798,22.372214 265.18798,20.667214 C 265.18798,18.783464 266.60298,18.333464 268.01923,18.140964 C 269.41923,17.932214 270.72298,17.979714 270.72298,17.045964 C 270.72298,16.064714 270.04798,15.919714 269.24298,15.919714 C 268.37298,15.919714 267.81048,16.273464 267.73048,17.174714 L 265.44548,17.174714 z M 270.72298,18.864714 C 270.33673,19.202214 269.53298,19.218464 268.82423,19.347214 C 268.11548,19.490964 267.47298,19.733464 267.47298,20.570964 C 267.47298,21.423464 268.13173,21.633464 268.87298,21.633464 C 270.65923,21.633464 270.72298,20.215964 270.72298,19.717214 L 270.72298,18.864714 z"
         id="path6000"
         style="fill:#000000;fill-opacity:1;fill-rule:nonzero;stroke:none" />
      <path
         d="M 274.84048,14.615964 L 276.99673,14.615964 L 276.99673,15.742214 L 277.02798,15.742214 C 277.62423,14.889714 278.49298,14.389714 279.57173,14.389714 C 280.61673,14.389714 281.55048,14.777214 282.00173,15.774714 C 282.48423,15.050964 283.35298,14.389714 284.51173,14.389714 C 286.28173,14.389714 287.55298,15.210964 287.55298,17.367214 L 287.55298,22.935964 L 285.26798,22.935964 L 285.26798,18.220964 C 285.26798,17.110964 285.17173,16.193464 283.86798,16.193464 C 282.58048,16.193464 282.33923,17.254714 282.33923,18.300964 L 282.33923,22.935964 L 280.05423,22.935964 L 280.05423,18.268464 C 280.05423,17.303464 280.11798,16.193464 278.67048,16.193464 C 278.21923,16.193464 277.12548,16.483464 277.12548,18.108464 L 277.12548,22.935964 L 274.84048,22.935964 L 274.84048,14.615964 z"
         id="path6002"
         style="fill:#000000;fill-opacity:1;fill-rule:nonzero;stroke:none" />
      <path
         d="M 289.18798,14.615964 L 291.36048,14.615964 L 291.36048,15.774714 L 291.40798,15.774714 C 291.98798,14.840964 292.98548,14.389714 293.95173,14.389714 C 296.38048,14.389714 296.99298,15.758464 296.99298,17.818464 L 296.99298,22.935964 L 294.70673,22.935964 L 294.70673,18.237214 C 294.70673,16.868464 294.30548,16.193464 293.24298,16.193464 C 292.00423,16.193464 291.47298,16.884714 291.47298,18.574714 L 291.47298,22.935964 L 289.18798,22.935964 L 289.18798,14.615964 z"
         id="path6004"
         style="fill:#000000;fill-opacity:1;fill-rule:nonzero;stroke:none" />
      <path
         d="M 300.60798,19.330964 C 300.67173,20.779714 301.37923,21.438464 302.65048,21.438464 C 303.56923,21.438464 304.30923,20.875964 304.45298,20.360964 L 306.46548,20.360964 C 305.82173,22.324714 304.45298,23.162214 302.57048,23.162214 C 299.94673,23.162214 298.32173,21.358464 298.32173,18.783464 C 298.32173,16.289714 300.04423,14.389714 302.57048,14.389714 C 305.40298,14.389714 306.77048,16.772214 306.61048,19.330964 L 300.60798,19.330964 z M 304.32548,17.882214 C 304.11548,16.724714 303.61673,16.113464 302.50548,16.113464 C 301.05798,16.113464 300.63923,17.239714 300.60798,17.882214 L 304.32548,17.882214 z"
         id="path6006"
         style="fill:#000000;fill-opacity:1;fill-rule:nonzero;stroke:none" />
      <path
         d="M 309.72923,20.232214 C 309.74548,21.229714 310.58298,21.633464 311.48298,21.633464 C 312.14298,21.633464 312.98048,21.374714 312.98048,20.570964 C 312.98048,19.878464 312.03048,19.637214 310.38923,19.283464 C 309.06923,18.993464 307.74923,18.525964 307.74923,17.062214 C 307.74923,14.938464 309.58423,14.389714 311.37048,14.389714 C 313.18923,14.389714 314.86298,15.002214 315.04048,17.045964 L 312.86673,17.045964 C 312.80298,16.160964 312.12798,15.919714 311.30673,15.919714 C 310.79173,15.919714 310.03548,16.015964 310.03548,16.692214 C 310.03548,17.513464 311.32173,17.625964 312.62548,17.932214 C 313.96173,18.237214 315.26548,18.719714 315.26548,20.264714 C 315.26548,22.453464 313.36673,23.162214 311.46798,23.162214 C 309.53673,23.162214 307.65298,22.437214 307.55673,20.232214 L 309.72923,20.232214 z"
         id="path6008"
         style="fill:#000000;fill-opacity:1;fill-rule:nonzero;stroke:none" />
      <path
         d="M 319.49298,14.615964 L 321.16673,14.615964 L 321.16673,16.144714 L 319.49298,16.144714 L 319.49298,20.264714 C 319.49298,21.037214 319.68673,21.229714 320.45923,21.229714 C 320.70048,21.229714 320.92548,21.214714 321.16673,21.165964 L 321.16673,22.952214 C 320.78048,23.015964 320.28173,23.032214 319.83173,23.032214 C 318.43048,23.032214 317.20798,22.710964 317.20798,21.052214 L 317.20798,16.144714 L 315.82423,16.144714 L 315.82423,14.615964 L 317.20798,14.615964 L 317.20798,12.120964 L 319.49298,12.120964 L 319.49298,14.615964 z"
         id="path6010"
         style="fill:#000000;fill-opacity:1;fill-rule:nonzero;stroke:none" />
      <path
         d="M 327.02048,23.982214 C 326.52173,25.318464 325.73298,25.864714 324.15673,25.864714 C 323.68923,25.864714 323.22298,25.833464 322.75548,25.784714 L 322.75548,23.900964 C 323.19048,23.933464 323.64173,23.998464 324.09173,23.982214 C 324.88048,23.900964 325.13798,23.079714 324.88048,22.420964 L 321.95173,14.615964 L 324.39798,14.615964 L 326.28048,20.312214 L 326.31298,20.312214 L 328.13048,14.615964 L 330.49673,14.615964 L 327.02048,23.982214 z"
         id="path6012"
         style="fill:#000000;fill-opacity:1;fill-rule:nonzero;stroke:none" />
      <path
         d="M 335.29923,14.615964 L 337.58423,14.615964 L 337.58423,22.935964 L 335.29923,22.935964 L 335.29923,14.615964 z M 337.58423,13.329714 L 335.29923,13.329714 L 335.29923,11.445964 L 337.58423,11.445964 L 337.58423,13.329714 z"
         id="path6014"
         style="fill:#000000;fill-opacity:1;fill-rule:nonzero;stroke:none" />
      <path
         d="M 339.06048,14.615964 L 341.23298,14.615964 L 341.23298,15.774714 L 341.28173,15.774714 C 341.86048,14.840964 342.85798,14.389714 343.82423,14.389714 C 346.25423,14.389714 346.86548,15.758464 346.86548,17.818464 L 346.86548,22.935964 L 344.58048,22.935964 L 344.58048,18.237214 C 344.58048,16.868464 344.17798,16.193464 343.11548,16.193464 C 341.87673,16.193464 341.34673,16.884714 341.34673,18.574714 L 341.34673,22.935964 L 339.06048,22.935964 L 339.06048,14.615964 z"
         id="path6016"
         style="fill:#000000;fill-opacity:1;fill-rule:nonzero;stroke:none" />
      <path
         d="M 351.49423,14.615964 L 353.16923,14.615964 L 353.16923,16.144714 L 351.49423,16.144714 L 351.49423,20.264714 C 351.49423,21.037214 351.68673,21.229714 352.46048,21.229714 C 352.70048,21.229714 352.92548,21.214714 353.16923,21.165964 L 353.16923,22.952214 C 352.78173,23.015964 352.28423,23.032214 351.83173,23.032214 C 350.43173,23.032214 349.20923,22.710964 349.20923,21.052214 L 349.20923,16.144714 L 347.82548,16.144714 L 347.82548,14.615964 L 349.20923,14.615964 L 349.20923,12.120964 L 351.49423,12.120964 L 351.49423,14.615964 z"
         id="path6018"
         style="fill:#000000;fill-opacity:1;fill-rule:nonzero;stroke:none" />
      <path
         d="M 356.22173,19.330964 C 356.28673,20.779714 356.99298,21.438464 358.26548,21.438464 C 359.18298,21.438464 359.92173,20.875964 360.06673,20.360964 L 362.07798,20.360964 C 361.43548,22.324714 360.06673,23.162214 358.18548,23.162214 C 355.56173,23.162214 353.93548,21.358464 353.93548,18.783464 C 353.93548,16.289714 355.65798,14.389714 358.18548,14.389714 C 361.01673,14.389714 362.38548,16.772214 362.22548,19.330964 L 356.22173,19.330964 z M 359.93798,17.882214 C 359.72923,16.724714 359.23173,16.113464 358.11923,16.113464 C 356.67173,16.113464 356.25423,17.239714 356.22173,17.882214 L 359.93798,17.882214 z"
         id="path6020"
         style="fill:#000000;fill-opacity:1;fill-rule:nonzero;stroke:none" />
      <path
         d="M 363.57423,14.615964 L 365.74548,14.615964 L 365.74548,16.160964 L 365.77798,16.160964 C 366.19548,15.114714 367.32173,14.389714 368.43173,14.389714 C 368.59298,14.389714 368.78798,14.423464 368.93173,14.470964 L 368.93173,16.595964 C 368.72298,16.547214 368.38423,16.515964 368.11048,16.515964 C 366.43673,16.515964 365.85798,17.722214 365.85798,19.185964 L 365.85798,22.935964 L 363.57423,22.935964 L 363.57423,14.615964 z"
         id="path6022"
         style="fill:#000000;fill-opacity:1;fill-rule:nonzero;stroke:none" />
      <path
         d="M 369.99173,14.615964 L 372.16423,14.615964 L 372.16423,15.774714 L 372.21173,15.774714 C 372.79048,14.840964 373.78798,14.389714 374.75423,14.389714 C 377.18548,14.389714 377.79548,15.758464 377.79548,17.818464 L 377.79548,22.935964 L 375.51048,22.935964 L 375.51048,18.237214 C 375.51048,16.868464 375.10673,16.193464 374.04673,16.193464 C 372.80673,16.193464 372.27673,16.884714 372.27673,18.574714 L 372.27673,22.935964 L 369.99173,22.935964 L 369.99173,14.615964 z"
         id="path6024"
         style="fill:#000000;fill-opacity:1;fill-rule:nonzero;stroke:none" />
      <path
         d="M 379.43048,17.174714 C 379.55923,15.034714 381.47423,14.389714 383.34173,14.389714 C 385.00048,14.389714 386.99548,14.760964 386.99548,16.755964 L 386.99548,21.085964 C 386.99548,21.842214 387.07673,22.598464 387.28548,22.935964 L 384.96798,22.935964 C 384.88548,22.678464 384.82423,22.404714 384.80548,22.132214 C 384.08298,22.887214 383.02048,23.162214 382.00673,23.162214 C 380.42923,23.162214 379.17423,22.372214 379.17423,20.667214 C 379.17423,18.783464 380.58923,18.333464 382.00673,18.140964 C 383.40673,17.932214 384.70923,17.979714 384.70923,17.045964 C 384.70923,16.064714 384.03423,15.919714 383.22923,15.919714 C 382.36048,15.919714 381.79548,16.273464 381.71548,17.174714 L 379.43048,17.174714 z M 384.70923,18.864714 C 384.32298,19.202214 383.51798,19.218464 382.80923,19.347214 C 382.10298,19.490964 381.45923,19.733464 381.45923,20.570964 C 381.45923,21.423464 382.11923,21.633464 382.86048,21.633464 C 384.64423,21.633464 384.70923,20.215964 384.70923,19.717214 L 384.70923,18.864714 z"
         id="path6026"
         style="fill:#000000;fill-opacity:1;fill-rule:nonzero;stroke:none" />
      <path
         d="M 391.65923,14.615964 L 393.33423,14.615964 L 393.33423,16.144714 L 391.65923,16.144714 L 391.65923,20.264714 C 391.65923,21.037214 391.85173,21.229714 392.62548,21.229714 C 392.86548,21.229714 393.09048,21.214714 393.33423,21.165964 L 393.33423,22.952214 C 392.94548,23.015964 392.44798,23.032214 391.99673,23.032214 C 390.59673,23.032214 389.37423,22.710964 389.37423,21.052214 L 389.37423,16.144714 L 387.98923,16.144714 L 387.98923,14.615964 L 389.37423,14.615964 L 389.37423,12.120964 L 391.65923,12.120964 L 391.65923,14.615964 z"
         id="path6028"
         style="fill:#000000;fill-opacity:1;fill-rule:nonzero;stroke:none" />
      <path
         d="M 394.48798,14.615964 L 396.77298,14.615964 L 396.77298,22.935964 L 394.48798,22.935964 L 394.48798,14.615964 z M 396.77173,13.329714 L 394.48673,13.329714 L 394.48673,11.445964 L 396.77173,11.445964 L 396.77173,13.329714 z"
         id="path6030"
         style="fill:#000000;fill-opacity:1;fill-rule:nonzero;stroke:none" />
      <path
         d="M 402.28923,14.389714 C 404.91048,14.389714 406.60173,16.128464 406.60173,18.783464 C 406.60173,21.423464 404.91048,23.162214 402.28923,23.162214 C 399.68048,23.162214 397.99048,21.423464 397.99048,18.783464 C 397.99048,16.128464 399.68048,14.389714 402.28923,14.389714 M 402.28923,21.438464 C 403.84798,21.438464 404.31673,20.103464 404.31673,18.783464 C 404.31673,17.447214 403.84798,16.113464 402.28923,16.113464 C 400.74298,16.113464 400.27673,17.447214 400.27673,18.783464 C 400.27673,20.103464 400.74298,21.438464 402.28923,21.438464"
         id="path6032"
         style="fill:#000000;fill-opacity:1;fill-rule:nonzero;stroke:none" />
      <path
         d="M 408.07548,14.615964 L 410.24798,14.615964 L 410.24798,15.774714 L 410.29673,15.774714 C 410.87673,14.840964 411.87423,14.389714 412.84048,14.389714 C 415.26923,14.389714 415.88173,15.758464 415.88173,17.818464 L 415.88173,22.935964 L 413.59548,22.935964 L 413.59548,18.237214 C 413.59548,16.868464 413.19423,16.193464 412.13173,16.193464 C 410.89298,16.193464 410.36048,16.884714 410.36048,18.574714 L 410.36048,22.935964 L 408.07548,22.935964 L 408.07548,14.615964 z"
         id="path6034"
         style="fill:#000000;fill-opacity:1;fill-rule:nonzero;stroke:none" />
      <path
         d="M 417.35673,17.174714 C 417.48548,15.034714 419.40048,14.389714 421.26548,14.389714 C 422.92423,14.389714 424.91923,14.760964 424.91923,16.755964 L 424.91923,21.085964 C 424.91923,21.842214 424.99923,22.598464 425.20798,22.935964 L 422.89173,22.935964 C 422.81173,22.678464 422.74673,22.404714 422.73173,22.132214 C 422.00673,22.887214 420.94423,23.162214 419.93048,23.162214 C 418.35423,23.162214 417.09798,22.372214 417.09798,20.667214 C 417.09798,18.783464 418.51548,18.333464 419.93048,18.140964 C 421.32923,17.932214 422.63548,17.979714 422.63548,17.045964 C 422.63548,16.064714 421.95798,15.919714 421.15298,15.919714 C 420.28423,15.919714 419.72173,16.273464 419.64173,17.174714 L 417.35673,17.174714 z M 422.63548,18.864714 C 422.24673,19.202214 421.44423,19.218464 420.73548,19.347214 C 420.02673,19.490964 419.38423,19.733464 419.38423,20.570964 C 419.38423,21.423464 420.04298,21.633464 420.78423,21.633464 C 422.57048,21.633464 422.63548,20.215964 422.63548,19.717214 L 422.63548,18.864714 z"
         id="path6036"
         style="fill:#000000;fill-opacity:1;fill-rule:nonzero;stroke:none" />
      <path
         d="M 426.75298,11.445964 L 429.03798,11.445964 L 429.03798,22.935964 L 426.75298,22.935964 L 426.75298,11.445964 z"
         id="path6038"
         style="fill:#000000;fill-opacity:1;fill-rule:nonzero;stroke:none" />
    </g>
  </g>
</svg>
